# xmcd
#
# Track frame offsets: 
#        150
#        15867
#        27370
#        43607
#        56802
#        73962
#        91927
#        110295
#        125427
#        142445
#        155372
#
# Disc length: 2310 seconds
#
# Revision: 0
# Processed by: cddbd v1.5.2PL0 Copyright (c) Steve Scherf et al.
# Submitted via: ExactAudioCopyFreeDBPlugin 1.0
#
DISCID=9609040b
DTITLE=Ottar Big Hand Johansen - Game of Hearts
DYEAR=1988
DGENRE=Country
TTITLE0=When you're in love
TTITLE1=His latest flame
TTITLE2=A day in the life of a fool
TTITLE3=There ain't nothing in it
TTITLE4=Am I a memory yet
TTITLE5=I'm still your fool
TTITLE6=Gamblin' on romance
TTITLE7=Some things never change
TTITLE8=Hungry eyes
TTITLE9=What a way to go
TTITLE10=Time, wind and water
EXTD=
EXTT0=
EXTT1=
EXTT2=
EXTT3=
EXTT4=
EXTT5=
EXTT6=
EXTT7=
EXTT8=
EXTT9=
EXTT10=
PLAYORDER=
